<?xml version="1.0" encoding="utf-8"?>
<!-- Generator: Adobe Illustrator 24.3.0, SVG Export Plug-In . SVG Version: 6.00 Build 0)  -->
<svg version="1.1" id="Capa_1" xmlns="http://www.w3.org/2000/svg" xmlns:xlink="http://www.w3.org/1999/xlink" x="0px" y="0px"
	 viewBox="0 0 306 627" style="enable-background:new 0 0 306 627;" xml:space="preserve">
<style type="text/css">
	.st0{fill-rule:evenodd;clip-rule:evenodd;fill:#242B35;}
</style>
<g>
	<path class="st0" d="M250.5,0.3H54.9C36,0.3,29.1,2.3,22.2,6C15.3,9.7,9.8,15.1,6.1,22.1S0.5,35.9,0.5,54.8V572
		c0,18.9,2,25.8,5.7,32.7c3.7,6.9,9.1,12.4,16.1,16.1c6.9,3.7,13.8,5.7,32.7,5.7h195.6c18.9,0,25.8-2,32.7-5.7
		c6.9-3.7,12.4-9.1,16.1-16.1c3.7-6.9,5.7-13.8,5.7-32.7V54.8c0-18.9-2-25.8-5.7-32.7c-3.7-6.9-9.1-12.4-16.1-16.1
		C276.4,2.3,269.5,0.3,250.5,0.3z M75.1,20.4c-0.3-2.6-2.5-4.6-5.1-4.6H51.7c-12.9,0-17.6,1.3-22.3,3.9c-4.7,2.5-8.4,6.2-11,11
		c-2.5,4.7-3.9,9.4-3.9,22.4v523.3c0,12.9,1.3,17.6,3.9,22.4c2.5,4.7,6.2,8.4,11,11c4.7,2.5,9.4,3.9,22.3,3.9h201.6
		c12.9,0,17.6-1.3,22.3-3.9c4.7-2.5,8.4-6.2,11-11c2.5-4.7,3.9-9.4,3.9-22.4V53c0-12.9-1.3-17.6-3.9-22.4c-2.5-4.7-6.2-8.4-11-11
		c-4.7-2.5-9.4-3.9-22.3-3.9h-18.3c-2.6,0-4.8,2-5.1,4.6c-0.4,3.3-1,7.4-1.9,9c-1.5,2.9-3.8,5.2-6.7,6.7c-2.9,1.5-6,2.4-12.5,2.4
		H96.1c-6.5,0-9.6-0.8-12.5-2.4c-2.9-1.5-5.1-3.8-6.7-6.7C76.1,27.8,75.5,23.7,75.1,20.4z"/>
</g>
</svg>
