<?xml version="1.0" encoding="utf-8"?>
<!-- Generator: Adobe Illustrator 25.0.1, SVG Export Plug-In . SVG Version: 6.00 Build 0)  -->
<svg version="1.1" id="Capa_1" xmlns="http://www.w3.org/2000/svg" xmlns:xlink="http://www.w3.org/1999/xlink" x="0px" y="0px"
	 viewBox="0 0 479.9 479.9" style="enable-background:new 0 0 479.9 479.9;" xml:space="preserve">
<style type="text/css">
	.st0{fill:#FFFFFF;}
</style>
<g>
	<g>
		<path class="st0" d="M240,80c-13.3,0-24,10.7-24,24c0,12.1,9,22.3,21,23.8c1,0.1,2,0.2,3,0.2c1,0,2.1-0.1,3.1-0.2
			c6.6-0.8,12.5-4.4,16.4-9.7c3-4.1,4.6-9,4.6-14.1C264,90.7,253.2,80,240,80z M246.4,108.7c-1.3,1.8-3.2,2.9-5.4,3.2
			c-0.7,0.1-1.5,0.1-2.2,0c-2.2-0.3-4.1-1.5-5.4-3.2c-1-1.3-1.5-3-1.5-4.6c0-4.4,3.6-8,8-8s8,3.6,8,8
			C248,105.7,247.4,107.3,246.4,108.7z"/>
	</g>
</g>
<g>
	<g>
		<path class="st0" d="M376,264h-37.3L296,104.7c0-0.2,0-0.5,0-0.7c0-18.3-9-35.4-24-45.8V24c0-13.3-10.7-24-24-24h-16
			c-13.3,0-24,10.7-24,24v34.2c-15,10.4-24,27.5-24,45.8c0,0.2,0,0.5,0,0.7L141.3,264H104c-4.4,0-8,3.6-8,8s3.6,8,8,8h33
			l-26.9,100.2c-7.2,26.9,6.4,54.9,32,65.9l-6.4,23.8c-1.1,4.3,1.4,8.7,5.7,9.8c0,0,0,0,0,0c0.7,0.2,1.4,0.3,2.1,0.3
			c3.6,0,6.8-2.4,7.7-5.9l52-194H232v24c0,4.4,3.6,8,8,8s8-3.6,8-8v-24h28.7l52,194c0.9,3.5,4.1,5.9,7.7,5.9c0.7,0,1.4-0.1,2.1-0.3
			c4.3-1.1,6.8-5.5,5.7-9.8c0,0,0,0,0,0l-6.4-23.8c25.5-11,39.2-39,32-65.9L342.9,280h33c4.4,0,8-3.6,8-8S380.4,264,376,264z
			 M232,16h16c4.4,0,8,3.6,8,8v26.4c-1.6-0.5-3.2-0.7-4.7-1.1c-0.8-0.2-1.5-0.4-2.2-0.5c-6-1.1-12-1.1-18,0
			c-0.8,0.1-1.6,0.4-2.4,0.5c-1.5,0.3-3.1,0.6-4.6,1l0-26.4C224,19.6,227.6,16,232,16z M219.9,69.5c2.2-1.3,4.5-2.3,6.8-3.1
			c3.4-1.2,6.9-1.9,10.4-2.1c0.9-0.1,1.9-0.2,2.8-0.2c7.1,0,14,1.9,20.1,5.5c12.4,7.2,20,20.5,19.9,34.9c-0.1,0.3-0.1,0.7-0.1,1
			c-0.6,18.2-13.4,33.8-31.3,37.7c-5.7,1.2-11.6,1.2-17.3,0c-17.8-3.9-30.7-19.5-31.3-37.7c0-0.4,0-0.9,0-1.3
			C200,89.8,207.6,76.6,219.9,69.5z M146.4,430.5c-17-8.5-25.6-27.8-20.7-46.2L153.6,280h33.1L146.4,430.5z M191,264h-33.1l34.8-130
			c0.7,1.1,1.6,2.2,2.4,3.2c0.8,1.1,1.5,2.2,2.4,3.2c1.1,1.3,2.4,2.5,3.6,3.7c0.9,0.9,1.8,1.8,2.7,2.6c1.4,1.2,2.8,2.1,4.3,3.2
			c1,0.7,1.9,1.5,3,2.1c1.6,1,3.3,1.7,5,2.5c1.1,0.5,2.1,1.1,3.2,1.5c0.2,0.1,0.3,0.2,0.5,0.3L191,264z M248,264v-24
			c0-4.4-3.6-8-8-8s-8,3.6-8,8v24h-24.4l27.9-104.2c1.5,0.1,3,0.2,4.5,0.2s3-0.1,4.5-0.2L272.4,264H248z M260.1,156.3
			c0.2-0.1,0.3-0.2,0.5-0.2c1.3-0.5,2.5-1.2,3.7-1.8c1.5-0.7,3-1.4,4.4-2.2c1.2-0.7,2.3-1.6,3.4-2.4c1.3-0.9,2.7-1.8,3.9-2.9
			c1.1-0.9,2-1.9,3-2.9c1.1-1.1,2.3-2.2,3.4-3.4c0.9-1,1.7-2.2,2.5-3.3s1.6-2,2.4-3.1l34.8,130H289L260.1,156.3z M354.3,384.3
			c4.9,18.4-3.8,37.6-20.8,46.1L293.3,280h33.1L354.3,384.3z"/>
	</g>
</g>
</svg>
