<svg id="Capa_1" data-name="Capa 1" xmlns="http://www.w3.org/2000/svg" viewBox="0 0 190.8 24"><defs><style>.cls-1{fill:#011023;}.cls-2{isolation:isolate;}</style></defs><path class="cls-1" d="M173.63,6.72a3,3,0,0,1-3-2.91,2.94,2.94,0,0,1,5.88,0A3,3,0,0,1,173.63,6.72Zm-15.31,0a3,3,0,0,1-3-2.91,2.94,2.94,0,0,1,5.88,0A3,3,0,0,1,158.32,6.72Z"/><path class="cls-1" d="M152.74,10.58c2.38,5.63,8.49,9.13,15.25,9.13s12.88-3.5,15.25-9.13l3.2,1.24c-2.73,6.94-9.9,11.63-18.45,11.63s-15.72-4.69-18.45-11.63Z"/><g class="cls-2"><path class="cls-1" d="M30.91,7.34,25,23.21H22.23l-4.58-12L13,23.21H10.25L4.36,7.34H7.08L11.69,20,16.48,7.34h2.43L23.61,20l4.73-12.7Z"/><path class="cls-1" d="M33.86,3.75a1.77,1.77,0,0,1-.55-1.32,1.82,1.82,0,0,1,.55-1.33A1.88,1.88,0,0,1,35.25.55a1.92,1.92,0,0,1,1.39.52,1.73,1.73,0,0,1,.56,1.3,1.87,1.87,0,0,1-.56,1.37,1.86,1.86,0,0,1-1.39.55A1.91,1.91,0,0,1,33.86,3.75Zm0,3.59h2.87V23.21H33.82Z"/><path class="cls-1" d="M51.09,22.28a4.3,4.3,0,0,1-1.56.83,6.45,6.45,0,0,1-1.91.28A5.1,5.1,0,0,1,43.9,22.1a4.92,4.92,0,0,1-1.31-3.68V9.71h-2.7V7.34h2.7V3.87h2.87V7.34H50V9.71H45.46V18.3a2.79,2.79,0,0,0,.65,2A2.38,2.38,0,0,0,48,21a3.46,3.46,0,0,0,2.24-.75Z"/><path class="cls-1" d="M67.84,9a6.86,6.86,0,0,1,1.78,5.13v9.13H66.75v-8.8a4.85,4.85,0,0,0-1.11-3.47,4.17,4.17,0,0,0-3.17-1.17,5,5,0,0,0-3.69,1.36A5.36,5.36,0,0,0,57.44,15v8.17H54.56V1h2.88V9.59a5.93,5.93,0,0,1,2.35-1.77A8.05,8.05,0,0,1,63,7.2,6.55,6.55,0,0,1,67.84,9Z"/></g><path class="cls-1" d="M74.37,1H79V23.21H74.37Z"/><path class="cls-1" d="M86.48,22.39a7.89,7.89,0,0,1-3.16-2.95,8.11,8.11,0,0,1-1.14-4.28,8.08,8.08,0,0,1,1.14-4.28,7.89,7.89,0,0,1,3.16-3,10.34,10.34,0,0,1,9.12,0,8,8,0,0,1,3.14,3,8.08,8.08,0,0,1,1.14,4.28,8.11,8.11,0,0,1-1.14,4.28,8,8,0,0,1-3.14,2.95,10.34,10.34,0,0,1-9.12,0Zm7.52-4a4.56,4.56,0,0,0,1.15-3.25A4.56,4.56,0,0,0,94,11.91a3.9,3.9,0,0,0-3-1.21,3.94,3.94,0,0,0-3,1.21,4.48,4.48,0,0,0-1.17,3.25,4.48,4.48,0,0,0,1.17,3.25,3.94,3.94,0,0,0,3,1.21A3.9,3.9,0,0,0,94,18.41Z"/><path class="cls-1" d="M121,7.11l-6.79,16.1h-4.82l-6.77-16.1h4.82l4.46,11,4.61-10.95Z"/><path class="cls-1" d="M139.34,16.48H127.15a3.81,3.81,0,0,0,1.56,2.36,5.14,5.14,0,0,0,3,.87,6.17,6.17,0,0,0,2.23-.37,5.41,5.41,0,0,0,1.81-1.19l2.49,2.7c-1.52,1.73-3.73,2.6-6.65,2.6a10.52,10.52,0,0,1-4.82-1.06,7.77,7.77,0,0,1-3.23-2.95,8.11,8.11,0,0,1-1.14-4.28,8.32,8.32,0,0,1,1.12-4.27,7.93,7.93,0,0,1,3.09-3,9.58,9.58,0,0,1,8.66,0,7.48,7.48,0,0,1,3,2.92,8.71,8.71,0,0,1,1.1,4.42Q139.43,15.31,139.34,16.48ZM128.41,11.3a3.81,3.81,0,0,0-1.32,2.45H135a3.85,3.85,0,0,0-1.31-2.44,3.94,3.94,0,0,0-2.64-.91A4,4,0,0,0,128.41,11.3Z"/></svg>