<svg id="Capa_1" data-name="Capa 1" xmlns="http://www.w3.org/2000/svg" viewBox="0 0 190.8 24"><defs><style>.cls-1{fill:#fff;}</style></defs><path class="cls-1" d="M161.22,6.19l-11-2.32v-3l11,1.24Zm12.4.53a3,3,0,0,1-3-2.91,2.94,2.94,0,0,1,5.87,0A2.94,2.94,0,0,1,173.62,6.72Z"/><path class="cls-1" d="M152.74,10.58c2.37,5.63,8.48,9.13,15.24,9.13s12.88-3.5,15.25-9.13l3.2,1.24c-2.73,6.94-9.91,11.63-18.45,11.63s-15.72-4.69-18.45-11.63Z"/><path class="cls-1" d="M30.92,7.35,25,23.21H22.24l-4.58-12L13,23.21H10.27L4.37,7.35H7.09L11.7,20,16.49,7.35h2.43L23.62,20,28.35,7.35Z"/><path class="cls-1" d="M33.87,3.75a1.75,1.75,0,0,1-.56-1.31,1.88,1.88,0,0,1,.56-1.34A1.94,1.94,0,0,1,35.26.55a2,2,0,0,1,1.39.52,1.72,1.72,0,0,1,.56,1.31,1.84,1.84,0,0,1-.56,1.36,1.86,1.86,0,0,1-1.39.55A1.89,1.89,0,0,1,33.87,3.75Zm0,3.6H36.7V23.21H33.82Z"/><path class="cls-1" d="M51.1,22.28a4.44,4.44,0,0,1-1.56.83,6.56,6.56,0,0,1-1.92.28,5.09,5.09,0,0,1-3.71-1.29,4.9,4.9,0,0,1-1.32-3.68V9.71H39.9V7.35h2.69V3.87h2.88V7.35H50V9.71H45.47V18.3a2.76,2.76,0,0,0,.64,2A2.39,2.39,0,0,0,48,21a3.47,3.47,0,0,0,2.25-.75Z"/><path class="cls-1" d="M67.84,9a6.86,6.86,0,0,1,1.78,5.13v9.13H66.75v-8.8A4.81,4.81,0,0,0,65.64,11a4.15,4.15,0,0,0-3.17-1.17,4.93,4.93,0,0,0-3.68,1.36A5.32,5.32,0,0,0,57.44,15v8.17H54.57V1h2.87V9.59a5.86,5.86,0,0,1,2.35-1.77A8.23,8.23,0,0,1,63,7.2,6.54,6.54,0,0,1,67.84,9Z"/><path class="cls-1" d="M74.37,1H79V23.21H74.37Z"/><path class="cls-1" d="M86.48,22.39a7.87,7.87,0,0,1-3.16-2.95,8.05,8.05,0,0,1-1.13-4.28,8.05,8.05,0,0,1,1.13-4.28,7.86,7.86,0,0,1,3.16-3,10.36,10.36,0,0,1,9.12,0,8.11,8.11,0,0,1,4.28,7.28,8.15,8.15,0,0,1-1.14,4.28,8,8,0,0,1-3.14,2.95A10.36,10.36,0,0,1,86.48,22.39Zm7.52-4a4.56,4.56,0,0,0,1.15-3.25A4.56,4.56,0,0,0,94,11.91a3.9,3.9,0,0,0-3-1.21,4,4,0,0,0-3,1.21,4.47,4.47,0,0,0-1.16,3.25A4.47,4.47,0,0,0,88,18.41a4,4,0,0,0,3,1.21,3.9,3.9,0,0,0,3-1.21Z"/><path class="cls-1" d="M116.6,7.9a7.43,7.43,0,0,1,2.88,2.9,8.79,8.79,0,0,1,1,4.36,8.78,8.78,0,0,1-1,4.35,7.46,7.46,0,0,1-2.88,2.91,8.21,8.21,0,0,1-4.09,1,6.18,6.18,0,0,1-5.06-2.1v1.86H103V1h4.67V8.81a6.28,6.28,0,0,1,4.85-1.94A8.2,8.2,0,0,1,116.6,7.9Zm-1.95,10.51a4.52,4.52,0,0,0,1.15-3.25,4.52,4.52,0,0,0-1.15-3.25,4.21,4.21,0,0,0-5.9,0,4.52,4.52,0,0,0-1.15,3.25,4.52,4.52,0,0,0,1.15,3.25A4.21,4.21,0,0,0,114.65,18.41Z"/><path class="cls-1" d="M139.33,16.48H127.15a3.82,3.82,0,0,0,1.55,2.36,5.18,5.18,0,0,0,3.06.87,6.26,6.26,0,0,0,2.23-.38,5.45,5.45,0,0,0,1.81-1.18l2.48,2.7c-1.51,1.73-3.73,2.6-6.64,2.6a10.44,10.44,0,0,1-4.82-1.06,7.82,7.82,0,0,1-3.24-2.95,8.26,8.26,0,0,1-1.13-4.28,8.19,8.19,0,0,1,1.12-4.27,8,8,0,0,1,3.08-3,9.6,9.6,0,0,1,8.67,0,7.46,7.46,0,0,1,3,2.92,8.65,8.65,0,0,1,1.09,4.42S139.39,15.7,139.33,16.48ZM128.4,11.3a3.84,3.84,0,0,0-1.31,2.45H135a3.83,3.83,0,0,0-1.32-2.44,3.94,3.94,0,0,0-2.63-.91A4,4,0,0,0,128.4,11.3Z"/></svg>