<?xml version="1.0" encoding="utf-8"?>
<!-- Generator: Adobe Illustrator 25.0.1, SVG Export Plug-In . SVG Version: 6.00 Build 0)  -->
<svg version="1.1" id="Capa_1" xmlns="http://www.w3.org/2000/svg" xmlns:xlink="http://www.w3.org/1999/xlink" x="0px" y="0px"
	 viewBox="0 0 480 480" style="enable-background:new 0 0 480 480;" xml:space="preserve">
<style type="text/css">
	.st0{fill:#FFFFFF;}
</style>
<g>
	<g>
		<path class="st0" d="M436.9,255.7c-5.8-5-13.2-7.7-20.8-7.7c-5.1,0-10.2,1.3-14.7,3.7c-3.9-3.9-7.9-7.8-12.1-11.7
			c9.6-8.8,18.6-18.1,27.2-27.8c32.8-37.8,44-70.5,31.4-92.2c-6.5-10.3-16.9-17.5-28.8-20c-24.6-6.6-61.8-2.3-104.4,10.9
			c-2.8-12.7-6.3-25.2-10.5-37.5C287.9,26.1,265.1,0,240.1,0H240c-12.3,0-30.2,6.5-47.5,36.1c-16.4-3.1-32.4,7.1-36.8,23.2
			c-3.7,13.5,1.9,27.8,13.8,35.2c-1.4,5.3-2.8,10.7-4.1,16.3c-12.4-3.9-25-7.1-37.7-9.6c-49.1-9.5-83-2.8-95.5,18.8
			c-5.7,10.8-6.8,23.4-3,34.9c6.6,24.6,28.9,54.6,61.6,84.9c-9.6,8.8-18.7,18.1-27.3,27.9c-32.8,37.7-44,70.5-31.4,92.2
			c6.1,10.7,20.7,23,55,23.1c5.9,16.7,24.2,25.4,40.8,19.5c7.2-2.5,13.2-7.6,17.1-14.2c2.5-4.5,4-9.5,4.1-14.6
			c5.3-1.4,10.7-2.9,16.1-4.6c2.8,12.7,6.3,25.2,10.5,37.5c16.3,47.3,39.1,73.4,64.2,73.4c12.1-0.5,23.6-5.8,31.7-14.9
			c18-18,32.8-52.4,42.7-95.8c12.4,3.9,25,7.1,37.8,9.6c13,2.7,26.3,4.1,39.6,4.2c27.8,0,47.2-7.8,56-23.1
			c6.2-10.7,9.6-29.4-7.4-59.2C451.9,287.4,450.3,267.2,436.9,255.7z M131.3,380.4c-4.4,7.6-14.2,10.3-21.9,5.8
			c-4.5-2.5-7.4-7-7.9-12.1c-0.4-3.4,0.4-6.8,2-9.7c0.7-1.1,1.5-2.2,2.4-3.1c0.2-0.2,0.5-0.4,0.7-0.7c0.8-0.7,1.6-1.3,2.5-1.9
			c0.2-0.1,0.4-0.3,0.6-0.4c2.3-1.2,4.8-1.9,7.4-1.9c0.3,0,0.6,0,0.8,0c1,0,2,0.2,2.9,0.4c0.3,0.1,0.6,0.1,1,0.2
			c5.8,1.6,10.2,6.4,11.2,12.4C133.8,373.2,133.2,377.1,131.3,380.4z M146.1,358.2L146.1,358.2c-0.7-1.5-1.6-2.9-2.5-4.2
			c-0.2-0.2-0.3-0.4-0.5-0.6c-1.1-1.4-2.2-2.8-3.5-4c-0.4-0.4-0.8-0.7-1.2-1.1c-1.5-1.4-3.2-2.6-4.9-3.6c-1.9-1.1-3.8-2-5.9-2.6
			c-0.3-0.1-0.5-0.1-0.8-0.2c-11.7-3.7-24.4-0.2-32.7,8.8c-0.2,0.2-0.4,0.3-0.6,0.5c-1.4,1.6-2.7,3.4-3.8,5.2
			c-0.9,1.6-1.7,3.2-2.3,4.9c-0.2,0.5-0.3,1.1-0.5,1.7c-0.4,1.2-0.7,2.3-0.9,3.5c0,0.2-0.1,0.4-0.1,0.6
			c-20.3-0.3-34.3-5.6-39.8-15.1c-8.7-15.1,2.1-42,29.7-73.7c8.5-9.7,17.6-19,27.2-27.7c16.2,14,33.3,27,51,39.1
			c1.5,21.4,4.3,42.7,8.2,63.8C156.7,355.2,151.3,356.8,146.1,358.2z M152.8,269.4c-13.6-9.7-26.4-19.6-37.9-29.4
			c11.6-10,24.4-19.8,38-29.4c-0.4,9.7-0.7,19.5-0.7,29.4S152.4,259.7,152.8,269.4z M154,190.2c-17.8,12.1-34.9,25.1-51.2,39.1
			c-31-28.3-52-56.1-58-78.5c-2.6-7.5-2.1-15.7,1.4-22.8c5.8-10,20.4-15.2,41.6-15.2c12.5,0.2,24.9,1.5,37.1,4
			c12.7,2.5,25.2,5.8,37.5,9.7C158.3,147.5,155.6,168.8,154,190.2z M309.2,179.1c-8.2-5.2-16.6-10.4-25.1-15.3s-17.2-9.6-25.9-14.1
			h0c15.2-7,30.1-13,44.5-18.1C305.5,146.6,307.6,162.6,309.2,179.1z M240,16L240,16c17.5,0,35.3,22.8,49,62.5
			c4.2,12.2,7.6,24.7,10.4,37.4c-20.2,7.1-40,15.3-59.3,24.6c-19.3-9.4-39.1-17.7-59.4-24.8c1.2-5.5,2.5-11,4-16.2
			c0.4,0,0.8,0,1.2,0s0.6,0.1,0.9,0.1c0.5,0,1-0.1,1.4-0.1c0.6,0,1.2-0.1,1.8-0.1c0.9-0.1,1.7-0.2,2.6-0.4c0.6-0.1,1.2-0.2,1.8-0.4
			c0.9-0.2,1.8-0.5,2.7-0.8c0.5-0.2,1-0.3,1.5-0.5c1.4-0.6,2.7-1.2,4-1.9c1.9-1.1,3.6-2.3,5.2-3.8c0.2-0.1,0.3-0.3,0.4-0.4
			c9.1-8.3,12.6-21.1,8.9-32.8c-0.1-0.3-0.1-0.5-0.2-0.8c-0.7-2-1.6-4-2.6-5.9c-0.9-1.5-1.9-3-3.1-4.4c-0.4-0.5-0.8-0.9-1.2-1.3
			c-0.8-0.9-1.6-1.7-2.5-2.5c-0.2-0.1-0.3-0.3-0.4-0.4C217.6,25.5,229.1,16,240,16z M221.9,149.7c-8.6,4.5-17.2,9.1-25.8,14.1
			s-16.9,10.1-25.1,15.3c1.6-16.5,3.7-32.5,6.5-47.5C191.9,136.7,206.8,142.8,221.9,149.7z M178.7,53.7c4.4-2.6,9.8-2.9,14.5-0.8
			c8.1,3.6,11.7,13,8.2,21.1c-1.4,3.1-3.7,5.7-6.6,7.4c-4,2.3-8.9,2.7-13.3,1.2c-3.6-1.2-6.7-3.7-8.6-7
			C168.5,67.9,171.1,58.1,178.7,53.7z M171,300.9c8.2,5.2,16.5,10.4,25.1,15.3s17.2,9.6,25.8,14.1c-15.1,6.9-30,13-44.4,18.1
			C174.7,333.4,172.5,317.4,171,300.9z M260.5,453.7L260.5,453.7c-5.2,6-12.5,9.7-20.4,10.3c-17.4,0-35.3-22.8-49-62.5
			c-4.2-12.2-7.6-24.7-10.4-37.3c20.2-7.1,40-15.4,59.3-24.7c19.3,9.4,39.2,17.7,59.5,24.8C290.4,405.2,276.9,437.3,260.5,453.7z
			 M302.7,348.5c-14.4-5.1-29.4-11.2-44.5-18.2c8.6-4.5,17.3-9.1,25.9-14.1s16.9-10.1,25.1-15.3
			C307.6,317.6,305.5,333.5,302.7,348.5z M310.8,280.8c-11.1,7.4-22.7,14.6-34.7,21.5c-11.9,6.9-24,13.3-36,19.3
			c-12-6-24-12.4-36-19.3s-23.6-14.2-34.7-21.5c-0.8-13.3-1.3-27-1.3-40.8s0.5-27.4,1.3-40.8c11.1-7.4,22.7-14.6,34.7-21.5
			s24.1-13.4,36-19.3c12,6,24,12.4,36,19.3s23.5,14.1,34.7,21.6c0.8,13.3,1.3,27,1.3,40.8C312.1,253.9,311.6,267.5,310.8,280.8z
			 M405.7,267.9c2.9-2.6,6.6-4,10.4-3.9c8.8,0,16,7.2,16,16c0,5.1-2.4,9.9-6.6,12.9c-7.1,5.2-17.2,3.6-22.4-3.5
			c-2-2.7-3.1-6-3.1-9.4C400.1,275.4,402.1,270.9,405.7,267.9z M391.6,112.8c7.9-0.1,15.7,0.8,23.4,2.7c7.8,1.4,14.6,5.9,19.1,12.5
			c8.7,15.1-2.1,42-29.7,73.7c-8.5,9.7-17.6,18.9-27.1,27.6c-16.3-13.9-33.3-27-51.1-39c-1.5-21.5-4.3-42.8-8.3-64
			C341.7,118.2,366.5,113.7,391.6,112.8z M327.4,210.6c13.5,9.6,26.3,19.5,37.9,29.4c-11.6,10-24.4,19.8-37.9,29.4
			c0.4-9.7,0.7-19.4,0.7-29.4C328.1,230.1,327.8,220.3,327.4,210.6z M434,352c-8.7,15.1-37.4,19.2-78.7,11.2
			c-12.7-2.5-25.2-5.8-37.5-9.7c4-21.1,6.8-42.3,8.3-63.7c17.8-12,34.9-25.1,51.2-39.1c4.2,3.9,8.3,7.7,12.1,11.6
			c-0.9,1.4-1.7,2.8-2.4,4.3c-0.1,0.2-0.2,0.5-0.3,0.7c-0.7,1.6-1.3,3.3-1.7,5.1c-0.1,0.5-0.2,1-0.4,1.5
			c-3.5,17.1,7.5,33.9,24.7,37.4c2.2,0.5,4.4,0.7,6.7,0.6c1.8,0,3.6-0.2,5.4-0.5c0.6-0.1,1.1-0.3,1.7-0.4c1.2-0.3,2.4-0.6,3.6-1
			c0.2-0.1,0.4-0.1,0.5-0.2C437.1,327.8,439.5,342.5,434,352z"/>
	</g>
</g>
</svg>
